<svg width="80" height="126" viewBox="0 0 80 126" fill="none" xmlns="http://www.w3.org/2000/svg">
<g filter="url(#filter0_d)">
<path d="M68.2223 42.9972H44.0879L66.4608 7.7616H38.2744L11.8497 60.6148H32.6371L11.8497 109.945L68.2223 42.9972Z" fill="#F2AE00"/>
<path d="M45.321 7.7616H38.2744L11.8497 60.6148H18.8962L45.321 7.7616Z" fill="#700151"/>
<path d="M59.4141 42.9973L17.1345 93.2078L10.088 109.945L66.4607 42.9973H59.4141Z" fill="#F2DA00"/>
<path d="M11.8498 111.706C11.4974 111.706 11.1452 111.706 10.9689 111.53C10.2643 111.002 9.9119 110.121 10.2643 109.416L29.9947 62.3769H11.8498C11.3213 62.3769 10.6167 62.0244 10.2643 61.4959C9.9119 60.9674 9.9119 60.2627 10.2643 59.7342L36.6891 6.88096C37.0415 6.35242 37.5699 6 38.2745 6H66.4609C67.1655 6 67.694 6.35242 68.0464 6.88096C68.3988 7.40949 68.3988 8.11413 68.0464 8.64266L47.4351 41.2356H68.2225C68.927 41.2356 69.4555 41.588 69.8079 42.2926C70.1603 42.9973 69.984 43.7021 69.6318 44.2306L13.259 111.178C12.9068 111.53 12.3783 111.706 11.8498 111.706ZM14.6684 58.8532H32.6372C33.1657 58.8532 33.6942 59.2057 34.0466 59.5579C34.399 60.0864 34.399 60.6149 34.2227 61.1435L18.0154 99.9025L64.523 44.759H44.0878C43.3832 44.759 42.8547 44.4066 42.5023 43.878C42.1499 43.3495 42.1499 42.6448 42.5023 42.1163L63.2899 9.52362H39.3315L14.6684 58.8532Z" fill="black"/>
</g>
<defs>
<filter id="filter0_d" x="0" y="0" width="80" height="125.706" filterUnits="userSpaceOnUse" color-interpolation-filters="sRGB">
<feFlood flood-opacity="0" result="BackgroundImageFix"/>
<feColorMatrix in="SourceAlpha" type="matrix" values="0 0 0 0 0 0 0 0 0 0 0 0 0 0 0 0 0 0 127 0"/>
<feOffset dy="4"/>
<feGaussianBlur stdDeviation="5"/>
<feColorMatrix type="matrix" values="0 0 0 0 0.441275 0 0 0 0 0.0534375 0 0 0 0 0.475 0 0 0 0.62 0"/>
<feBlend mode="normal" in2="BackgroundImageFix" result="effect1_dropShadow"/>
<feBlend mode="normal" in="SourceGraphic" in2="effect1_dropShadow" result="shape"/>
</filter>
</defs>
</svg>
