<svg width="15" height="15" viewBox="0 0 15 15" fill="none" xmlns="http://www.w3.org/2000/svg">
<path d="M7.5 0C3.358 0 0 3.35785 0 7.5C0 11.6421 3.358 15 7.5 15C11.642 15 15 11.6421 15 7.5C15 3.35785 11.642 0 7.5 0ZM11.3044 8.31115C11.654 8.65258 12.0238 8.97391 12.3376 9.35064C12.4766 9.51729 12.6077 9.68962 12.7074 9.88343C12.8498 10.1598 12.7212 10.4629 12.4739 10.4793L10.9373 10.479C10.5405 10.5118 10.2247 10.3518 9.95847 10.0805C9.74593 9.86425 9.54875 9.6333 9.34404 9.40972C9.26041 9.31795 9.17233 9.23156 9.06737 9.16358C8.8579 9.02731 8.67591 9.06905 8.55591 9.28788C8.43361 9.51054 8.40568 9.75729 8.39402 10.0051C8.37729 10.3674 8.26803 10.4621 7.9045 10.4791C7.12772 10.5155 6.39069 10.3976 5.70568 10.006C5.10138 9.66061 4.63366 9.17309 4.22609 8.62113C3.43243 7.54511 2.8246 6.36414 2.27847 5.14926C2.15555 4.87565 2.24547 4.72926 2.54731 4.72358C3.0488 4.71391 3.55028 4.71514 4.05176 4.72312C4.25586 4.72634 4.39089 4.84312 4.46931 5.0357C4.74031 5.70246 5.07253 6.33683 5.48885 6.92517C5.5998 7.08184 5.71304 7.23806 5.87432 7.3487C6.05233 7.47084 6.18798 7.43049 6.27192 7.23176C6.32563 7.10547 6.3488 6.97043 6.36046 6.83509C6.40036 6.37151 6.40512 5.90808 6.33606 5.44634C6.29309 5.15739 6.13059 4.97079 5.84256 4.91616C5.69586 4.88839 5.71734 4.83407 5.7887 4.75028C5.91253 4.60542 6.02854 4.51581 6.26041 4.51581L7.99642 4.5155C8.27003 4.56921 8.33141 4.69197 8.36854 4.96757L8.37008 6.89678C8.36685 7.00343 8.42363 7.31954 8.61514 7.38936C8.76859 7.44 8.86987 7.31693 8.96164 7.2198C9.37795 6.778 9.67458 6.25657 9.9402 5.71688C10.0574 5.47887 10.1586 5.23258 10.2568 4.98583C10.3298 4.80338 10.4434 4.71361 10.6493 4.71667L12.321 4.71867C12.3703 4.71867 12.4203 4.71913 12.4691 4.72757C12.7508 4.77575 12.828 4.89698 12.7409 5.17182C12.6037 5.60363 12.3371 5.96332 12.0766 6.32394C11.7973 6.71003 11.4994 7.08261 11.2229 7.47038C10.9688 7.82486 10.9889 8.00332 11.3044 8.31115Z" fill="#FFFEFE"/>
</svg>
