<svg width="15" height="15" viewBox="0 0 15 15" fill="none" xmlns="http://www.w3.org/2000/svg">
<path d="M8.93555 7.5C8.93555 8.29285 8.29285 8.93555 7.5 8.93555C6.70715 8.93555 6.06445 8.29285 6.06445 7.5C6.06445 6.70715 6.70715 6.06445 7.5 6.06445C8.29285 6.06445 8.93555 6.70715 8.93555 7.5Z" fill="white"/>
<path d="M10.8572 4.96008C10.7882 4.77308 10.6781 4.60382 10.5351 4.46489C10.3962 4.32184 10.227 4.21175 10.0399 4.14274C9.88815 4.0838 9.66019 4.01365 9.2403 3.99454C8.78609 3.97382 8.6499 3.96936 7.5 3.96936C6.34998 3.96936 6.2138 3.97371 5.7597 3.99442C5.33981 4.01365 5.11173 4.0838 4.9601 4.14274C4.77299 4.21175 4.60373 4.32184 4.46491 4.46489C4.32186 4.60382 4.21177 4.77296 4.14265 4.96008C4.08371 5.11182 4.01356 5.3399 3.99445 5.75979C3.97373 6.21389 3.96927 6.35007 3.96927 7.50009C3.96927 8.64999 3.97373 8.78618 3.99445 9.24039C4.01356 9.66028 4.08371 9.88824 4.14265 10.04C4.21177 10.2271 4.32175 10.3962 4.4648 10.5352C4.60373 10.6782 4.77287 10.7883 4.95998 10.8573C5.11173 10.9164 5.33981 10.9865 5.7597 11.0056C6.2138 11.0264 6.34987 11.0307 7.49989 11.0307C8.65002 11.0307 8.7862 11.0264 9.24019 11.0056C9.66007 10.9865 9.88815 10.9164 10.0399 10.8573C10.4155 10.7124 10.7124 10.4156 10.8572 10.04C10.9162 9.88824 10.9863 9.66028 11.0056 9.24039C11.0263 8.78618 11.0306 8.64999 11.0306 7.50009C11.0306 6.35007 11.0263 6.21389 11.0056 5.75979C10.9864 5.3399 10.9163 5.11182 10.8572 4.96008ZM7.5 9.71143C6.27857 9.71143 5.28843 8.72141 5.28843 7.49998C5.28843 6.27855 6.27857 5.28852 7.5 5.28852C8.72131 5.28852 9.71146 6.27855 9.71146 7.49998C9.71146 8.72141 8.72131 9.71143 7.5 9.71143ZM9.79889 5.7179C9.51347 5.7179 9.28207 5.4865 9.28207 5.20109C9.28207 4.91567 9.51347 4.68427 9.79889 4.68427C10.0843 4.68427 10.3157 4.91567 10.3157 5.20109C10.3156 5.4865 10.0843 5.7179 9.79889 5.7179Z" fill="white"/>
<path d="M7.5 0C3.3585 0 0 3.3585 0 7.5C0 11.6415 3.3585 15 7.5 15C11.6415 15 15 11.6415 15 7.5C15 3.3585 11.6415 0 7.5 0ZM11.7807 9.27555C11.7598 9.734 11.6869 10.047 11.5805 10.321C11.3568 10.8995 10.8995 11.3568 10.321 11.5805C10.0471 11.6869 9.734 11.7597 9.27567 11.7807C8.81641 11.8016 8.6697 11.8066 7.50011 11.8066C6.33041 11.8066 6.18382 11.8016 5.72445 11.7807C5.26611 11.7597 4.953 11.6869 4.67915 11.5805C4.39167 11.4724 4.13143 11.3029 3.91628 11.0837C3.69724 10.8687 3.52776 10.6083 3.41961 10.321C3.31318 10.0471 3.24028 9.734 3.21945 9.27567C3.19828 8.8163 3.19336 8.66959 3.19336 7.5C3.19336 6.33041 3.19828 6.1837 3.21934 5.72445C3.24017 5.266 3.31295 4.953 3.41938 4.67903C3.52753 4.39167 3.69713 4.13132 3.91628 3.91628C4.13132 3.69713 4.39167 3.52764 4.67903 3.41949C4.953 3.31306 5.266 3.24028 5.72445 3.21934C6.1837 3.19839 6.33041 3.19336 7.5 3.19336C8.66959 3.19336 8.8163 3.19839 9.27555 3.21945C9.734 3.24028 10.047 3.31306 10.321 3.41938C10.6083 3.52753 10.8687 3.69713 11.0838 3.91628C11.3029 4.13143 11.4725 4.39167 11.5805 4.67903C11.687 4.953 11.7598 5.266 11.7808 5.72445C11.8017 6.1837 11.8066 6.33041 11.8066 7.5C11.8066 8.66959 11.8017 8.8163 11.7807 9.27555Z" fill="white"/>
</svg>
