<svg width="60" height="106" viewBox="0 0 60 106" fill="none" xmlns="http://www.w3.org/2000/svg">
<path d="M1.84978 105.706C1.49739 105.706 1.14519 105.706 0.968891 105.53C0.2643 105.002 -0.0880997 104.121 0.264299 103.416L19.9947 56.3769H1.84978C1.32129 56.3769 0.616698 56.0244 0.264299 55.4959C-0.0880997 54.9674 -0.0880997 54.2627 0.264299 53.7342L26.6891 0.880956C27.0415 0.352424 27.5699 0 28.2745 0H56.4609C57.1655 0 57.694 0.352424 58.0464 0.880956C58.3988 1.40949 58.3988 2.11413 58.0464 2.64266L37.4351 35.2356H58.2225C58.927 35.2356 59.4555 35.588 59.8079 36.2926C60.1603 36.9973 59.984 37.7021 59.6318 38.2306L3.25897 105.178C2.90678 105.53 2.37828 105.706 1.84978 105.706ZM4.66836 52.8532H22.6372C23.1657 52.8532 23.6942 53.2057 24.0466 53.5579C24.399 54.0864 24.399 54.6149 24.2227 55.1435L8.01542 93.9025L54.523 38.759H34.0878C33.3832 38.759 32.8547 38.4066 32.5023 37.878C32.1499 37.3495 32.1499 36.6448 32.5023 36.1163L53.2899 3.52362H29.3315L4.66836 52.8532Z" fill="black"/>
</svg>
